<?xml version="1.0" standalone="no"?>
<!DOCTYPE svg PUBLIC "-//W3C//DTD SVG 20010904//EN"
 "http://www.w3.org/TR/2001/REC-SVG-20010904/DTD/svg10.dtd">
<svg version="1.0" xmlns="http://www.w3.org/2000/svg"
 width="512.000000pt" height="512.000000pt" viewBox="0 0 512.000000 512.000000"
 preserveAspectRatio="xMidYMid meet">
<metadata>
Created by potrace 1.14, written by Peter Selinger 2001-2017
</metadata>
<g transform="translate(0.000000,512.000000) scale(0.100000,-0.100000)"
fill="#000000" stroke="none">
<path d="M2280 5109 c-606 -80 -1106 -319 -1507 -717 -269 -268 -426 -499
-578 -852 -50 -118 -125 -359 -141 -459 -3 -18 -8 -43 -10 -55 -12 -62 -25
-150 -31 -221 -10 -100 -9 -398 0 -485 4 -36 10 -83 12 -105 2 -22 7 -51 10
-65 2 -14 7 -41 10 -60 17 -103 67 -281 125 -445 77 -214 274 -549 433 -734
53 -61 280 -285 326 -321 24 -19 58 -47 75 -61 89 -73 269 -186 413 -258 204
-102 467 -191 673 -226 120 -21 154 -26 230 -33 110 -9 405 -9 495 1 121 13
146 16 163 21 9 3 37 8 62 11 24 4 47 8 51 10 3 2 21 7 40 10 73 12 243 64
362 109 238 91 539 271 737 441 155 133 350 354 467 530 94 140 136 219 244
460 35 80 101 300 129 430 18 89 50 316 45 322 -1 2 -34 -47 -74 -107 -40 -61
-78 -116 -84 -123 -7 -7 -37 -41 -67 -77 -174 -203 -391 -373 -626 -488 -209
-103 -363 -151 -609 -192 -86 -14 -155 -17 -315 -15 -113 1 -216 5 -230 8 -14
3 -47 8 -75 12 -68 9 -236 51 -314 79 l-65 23 32 31 c81 80 182 126 327 152
126 22 143 27 167 48 10 8 20 30 24 48 10 56 -25 94 -99 108 -237 43 -326 80
-420 172 -88 86 -134 198 -171 411 -15 81 -48 116 -105 109 -55 -6 -67 -29
-101 -183 -17 -78 -40 -163 -51 -187 -24 -55 -79 -129 -128 -173 -40 -36 -140
-93 -164 -93 -15 0 -121 112 -194 205 -201 256 -340 578 -399 920 -22 132 -27
444 -8 580 77 549 359 1028 796 1353 51 38 114 81 140 96 45 26 69 48 51 45
-4 -1 -37 -5 -73 -10z"/>
<path d="M4113 5100 c-30 -18 -44 -47 -59 -125 -2 -11 -9 -45 -15 -75 -5 -30
-12 -66 -15 -80 -33 -173 -157 -342 -309 -422 -39 -20 -82 -39 -95 -42 -14 -3
-63 -15 -110 -25 -47 -11 -104 -23 -127 -26 -97 -13 -146 -57 -141 -126 5 -67
59 -94 244 -123 77 -12 200 -56 263 -93 77 -46 166 -141 210 -223 36 -67 77
-212 97 -345 8 -59 43 -117 78 -128 43 -14 102 7 121 44 13 25 40 137 58 239
33 186 150 347 313 432 58 30 173 64 284 85 53 9 108 23 133 32 28 11 54 54
52 86 -1 11 -2 30 -3 43 -3 38 -62 65 -198 88 -231 39 -390 130 -488 279 -51
78 -72 138 -105 298 -36 171 -48 201 -92 216 -44 15 -59 14 -96 -9z"/>
<path d="M2383 4130 c-12 -5 -27 -19 -33 -30 -13 -23 -17 -243 -6 -278 4 -11
22 -27 41 -36 31 -15 38 -15 64 -2 39 21 47 52 46 182 -1 87 -5 117 -18 138
-10 14 -24 26 -31 26 -8 0 -20 2 -28 4 -7 3 -23 1 -35 -4z"/>
<path d="M2010 3747 c-23 -6 -35 -17 -46 -43 -13 -31 -13 -38 3 -64 12 -21 28
-32 53 -37 46 -8 208 -8 242 0 33 9 61 57 52 91 -12 50 -33 58 -157 60 -63 1
-129 -2 -147 -7z"/>
<path d="M2561 3744 c-15 -6 -33 -25 -40 -42 -11 -26 -10 -35 5 -61 10 -17 27
-34 38 -37 37 -12 250 -8 274 5 43 23 49 92 11 127 -15 13 -41 17 -140 18 -72
1 -132 -3 -148 -10z"/>
<path d="M2383 3570 c-38 -16 -45 -45 -45 -182 1 -140 2 -144 60 -168 31 -13
77 11 89 47 5 15 9 81 8 146 -2 102 -4 121 -21 137 -24 23 -62 32 -91 20z"/>
<path d="M4515 3005 c-26 -25 -26 -30 -26 -150 0 -132 1 -141 21 -163 22 -23
68 -29 100 -12 29 15 36 56 35 184 -1 116 -2 119 -29 142 -35 31 -71 30 -101
-1z"/>
<path d="M4132 2625 c-40 -34 -26 -116 22 -129 39 -11 247 -6 269 5 47 25 57
76 23 116 l-24 28 -133 1 c-121 0 -134 -1 -157 -21z"/>
<path d="M4715 2640 c-51 -19 -65 -77 -28 -120 l25 -30 131 0 c88 1 137 5 148
13 42 33 46 89 7 123 -16 16 -39 19 -141 20 -67 1 -131 -2 -142 -6z"/>
<path d="M4515 2445 c-27 -26 -27 -26 -27 -179 0 -109 10 -140 52 -154 36 -13
86 11 98 46 4 15 8 81 7 146 -1 116 -2 119 -29 142 -35 31 -71 30 -101 -1z"/>
</g>
</svg>
